<?xml version="1.0" encoding="utf-8"?>
<!-- Generator: Adobe Illustrator 26.5.3, SVG Export Plug-In . SVG Version: 6.00 Build 0)  -->
<svg version="1.1" id="Layer_1" xmlns="http://www.w3.org/2000/svg" xmlns:xlink="http://www.w3.org/1999/xlink" x="0px" y="0px"
	 viewBox="0 0 839.8 357.5" style="enable-background:new 0 0 839.8 357.5;" xml:space="preserve">
<style type="text/css">
	.st0{fill:#42170C;}
	.st1{fill:#EF4723;}
	.st2{fill:#FFFFFF;}
	.st3{fill:url(#SVGID_1_);}
	.st4{fill:url(#SVGID_00000112626324433197107610000014903338322685456790_);}
</style>
<linearGradient id="SVGID_1_" gradientUnits="userSpaceOnUse" x1="-29.9832" y1="54.5027" x2="710.6038" y2="409.1424">
	<stop  offset="0" style="stop-color:#40190F"/>
	<stop  offset="1" style="stop-color:#EF4823"/>
</linearGradient>
<path class="st3" d="M524.4,251.5c15.5,0.5,29.5,5.2,39.7,18.1c6.1,7.7,9,16.7,9.3,26.5c0.3,11.6-2.4,22.2-9.9,31.3
	c-8.3,10.1-19.3,15.6-32,16.7c-17.3,1.6-32.9-2.9-45.1-16.1c-7.1-7.7-10.4-16.9-10.7-27.4c-0.4-11.5,1.4-22.4,8.9-31.5
	C494.7,256.7,508.3,251.7,524.4,251.5z M506.5,297.8c-0.2,10.7,7,18.4,17.1,18.6c11.3,0.1,19.1-7.1,19.4-18
	c0.2-10.2-7.6-18.5-17.7-18.7C514.4,279.4,506.7,286.9,506.5,297.8z M581.8,341.4c0-29.2,0-58.5,0-88.2c1.8,0,3.6,0,5.3,0
	c13.5,0.2,27.1,0.1,40.6,0.7c19.3,0.7,34.8,11.6,40.6,28c6.4,18.1,1.7,37.9-11.9,49.2c-7.3,6.1-16,9.7-25.2,10.1
	C614.8,341.9,598.5,341.4,581.8,341.4z M611.4,314.8c5,0,9.5,0.4,14-0.1c8.7-0.9,14.4-6.4,15.1-13.9c0.9-9.4-2.8-16.7-10.8-18.9
	c-5.8-1.6-12-1.8-18.4-2.6C611.4,291.7,611.4,303.1,611.4,314.8z M711.6,309.9c10.3,0,20.6,0,30.9,0c3.8,0,4.8-1,4.9-4.7
	c0-4.6,0-9.1,0-13.7c0-5.1-0.4-5.5-5.4-5.5c-9.9,0-19.9,0-29.8-0.1c-1.4,0-2.7,0-4.1,0c0-2.3,0-4.1,0-6.1c1.6,0,2.8,0,4.1,0
	c9.8,0,19.6,0,29.5,0c5.9,0,6.3-0.4,6.3-6.4c0-4.9,0-9.8,0-14.7c0-4-0.9-4.8-5-4.8c-20.5,0-40.9,0-61.4,0c-1,0-2,0.1-2.9,0.2
	c0,29.7,0,59,0,88.6c14.8,0,29.4,0,44,0c7.1,0,14.3,0,21.4,0c2.7,0,4-1.4,4-4.2c0-6.1,0-12.2,0-18.2c0-3-1.3-4.2-4.2-4.2
	c-8.7,0-17.3,0-26,0c-3.2,0-6.5,0-9.9,0c0-2.1,0-3.8,0-6.1C709.3,309.9,710.4,309.9,711.6,309.9z M791.2,283.3
	c-10.1,10.7-20.2,21.4-30.2,32.2c-1.3,1.4-2.4,3.5-2.6,5.3c-0.5,5.2-0.5,10.5-0.5,15.8c-0.1,5.4,0.4,5.9,5.7,5.9
	c21.5,0,43-0.1,64.5-0.1c0.8,0,1.6-0.1,2.4-0.2c0-9.2,0-18.1,0-27.3c-11.7,0-23.2,0-35.3,0c0.9-1.1,1.4-1.7,1.9-2.2
	c10.2-10.9,20.5-21.8,30.6-32.8c1.2-1.4,2.3-3.4,2.4-5.2c0.3-5.8,0-11.7,0.1-17.5c0-2.6-1.1-3.5-3.6-3.5c-21.5,0.1-43,0.1-64.5,0.1
	c-3.1,0-4.4,1.3-4.4,4.4c0.1,6.2,0,12.4,0,18.6c0,4.3,0.6,4.8,4.8,5c1.4,0.1,2.8,0.1,4.2,0.1c8.4,0,16.7,0,25.7,0
	C791.7,282.7,791.4,283,791.2,283.3z M467.8,256.7c0-2.6-1.9-3.6-4.3-3.5c-11.6,0.2-23.1,0.1-34.6,0.8c-10.9,0.7-20.6,4.7-28.3,12.8
	c-8.9,9.3-12.1,20.6-11.9,33.3c0.3,18.9,12.2,35.4,30.5,40.1c15.8,4,32,2.6,48.1,2.7c0.2,0,0.3-0.3,0.3-0.3c0-9.4,0-18.7,0-28.3
	c-9.5,0-18.7,0.1-28-0.1c-3.2-0.1-6.6-0.5-9.6-1.5c-7.2-2.5-11.2-9.7-10.4-17.9c0.6-6.5,5.5-11,13.4-12.1c2.9-0.4,5.8-0.7,8.7-0.7
	c8.5-0.1,17,0,26.1,0C467.8,273.2,467.9,264.9,467.8,256.7z M201,298.2c-0.5-25.6,19.2-42.1,39.7-44.9c14.3-1.9,27.9-0.1,39.4,9.2
	c15.4,12.4,19.8,28.9,15.6,47.7c-4.2,18.6-19.7,31.5-39.2,33.7c-8.7,1-17.3,0.4-25.5-2.7C211.4,334.1,201,319.1,201,298.2z
	 M232.7,298.6c0,10.6,6.6,17.4,16.8,17.4c9.4,0,16.4-7.2,16.3-16.9c-0.1-10.7-6.6-17.7-16.5-17.7
	C239.3,281.5,232.7,288.4,232.7,298.6z M193,303.3c0.5,21.6-18.5,38.8-43.1,40.9c-14,1.2-26.7-2.1-37.5-11.3
	c-12.5-10.7-17.2-24.7-15.3-40.8c3.1-26.6,24.1-38.7,45.9-39.4c12.3-0.3,23.7,2.3,33.5,10C187.8,271.7,192.9,283.8,193,303.3z
	 M162,298.5c0-10-7.4-17.5-17-17.4c-9.9,0.1-17.1,7.6-17.1,17.8c0,9.5,7.5,17.1,17,17.1C155.1,316,162,308.9,162,298.5z M94.4,338.4
	c-8-12.9-15.9-25.8-24.1-38.6c-1.6-2.5-1.1-4,0.3-6.1c8.1-11.7,16.2-23.4,24.2-35.2c0.7-1,1.3-2,2.3-3.6c-9.6,0-18.3,0.5-27-0.2
	c-6.6-0.5-10.6,1.6-13.8,7.5c-4.9,8.8-10.7,17.1-16.1,25.6c-0.2,0-0.4-0.1-0.7-0.1c0-10.9,0-21.7,0-32.6c-10.3,0-20.2,0-30.1,0
	c0,29,0,57.7,0,86.5c10,0,19.8,0,30,0c0-11.3,0-22.3,0-33.4c7,10.2,13.3,20.5,19.5,30.8c1.2,2,2.4,2.9,4.9,2.9
	c6.4-0.2,12.9-0.1,19.3-0.1c4.3,0,8.5,0,13.3,0C95.5,340.4,95,339.4,94.4,338.4z M370.8,341.6c0-8.3,0-16.5,0-25.2
	c-11.7,0-23.2,0-35,0c0-20.7,0-40.9,0-61.3c-10.2,0-20.1,0-30.3,0c0,28.8,0,57.5,0,86.5C327.5,341.6,349.1,341.6,370.8,341.6z
	 M317.4,116.7c0.2-27.3,9.3-51.1,27.7-71.3c13.6-15,30.6-24.4,50.1-29.4c10.2-2.6,20.5-3.3,30.9-2.7c11.5,0.6,22.5,2.9,33.1,7.3
	c14.2,5.9,26.5,14.5,36.8,26c7,7.9,12.8,16.5,17.2,26.1c4.4,9.7,7.2,19.8,8.4,30.4c1.7,15.2,0.7,30.2-3.9,44.8
	c-6.2,19.9-17.1,36.6-33.2,50c-12.3,10.2-26.4,17.1-42,20.6c-8.5,1.9-17.2,2.8-26,2.4c-29.6-1.3-54.3-13.1-73.8-35.4
	c-12.1-13.8-19.7-29.9-23.4-47.9C318,130.7,317.4,123.7,317.4,116.7z M469.3,114.6c0.3,0,0.5,0,0.7,0c7.9-0.7,15.9-1.4,23.8-2
	c5.3-0.4,10.7-0.9,16-1.3c1.3-0.1,1.9-1,1.8-2.3c-0.6-6.3-1.5-12.6-3.3-18.8c-9-31.7-34.6-56.2-65.4-63.6
	c-10.5-2.5-21.1-3.4-31.9-2.4c-8.7,0.9-17,2.9-25.1,6.2c-18.6,7.6-33.6,19.7-44.2,36.9c-8.3,13.5-12.9,28.1-13.8,43.9
	c-0.6,11,0.5,21.7,3.5,32.2c2.9,9.9,7.4,19,13.2,27.5c0.8,1.1,1.6,2.3,2.4,3.4c-0.1-1.1-0.4-2-0.6-3c-1.7-6.8-2.8-13.8-3.3-20.8
	c-0.4-6.7,0-13.3,1.4-19.8c1.3-6.2,3.8-12,6.8-17.6c1.4-2.5,2.5-5.2,3.2-8c2.7-11,8.5-19.9,17.7-26.5c3-2.2,6-4.4,8.3-7.4
	c3.7-4.8,8.2-8.8,13.3-12.1c6.7-4.5,12.6-9.7,17.2-16.4c2.1-3.2,4.6-6.1,7.9-8.1c7.1-4.5,15-4.2,21.2,2.2c2.8,2.9,4.8,6.4,6.4,10.2
	c0.8,2,1.8,3.9,3.1,5.6c2.8,3.6,3.8,7.4,2.4,11.8c-1.2,4-1.1,4.5,2.3,7.1c3.5,2.8,6.6,6,9,9.9c5,8.3,5.8,17.5,5.9,26.8
	C469.3,110.4,469.3,112.5,469.3,114.6z M513.3,114.7c-1.6,0.1-2.9,0.2-4.1,0.3c-12.6,1.1-25.2,2.2-37.8,3.4
	c-6.6,0.6-13.2,1.2-19.8,1.8c-1.7,0.2-2.3,0.6-2.7,2.3c-1.5,5.7-2.9,11.4-4.3,17.1c-3,12-6.1,24-9.1,36c-0.3,1.1,0,1.5,1.2,1.4
	c1.8-0.2,3.5-0.4,5.3-0.6c8.4-1,16.7-1.9,25.1-2.9c10.1-1.1,20.1-2.4,30.2-3.3c6-0.6,4.9-1.7,6.3-5.4c0,0,0-0.1,0-0.1
	c3.1-11.9,6.2-23.8,9.3-35.7c0.9-3.6,1.8-7.2,2.7-10.8C515.9,116,515,114.7,513.3,114.7z M374.5,154.9c0,0.1,0,0.2,0,0.2
	c1.4,0.3,2.8,0.8,4.2,0.8c4.7,0.2,9.5,0.1,14.2,0.3c1.7,0.1,3.4,0.6,5,1.2c1.3,0.5,2.4,1.3,3.5,2.1c2.5,1.6,5.1,1.9,7.8,0.7
	c0.8-0.3,1.5-0.6,1.9-0.7c3.3,2.8,6.4,5.5,9.4,8.1c1.5-5.8-1.7-9.9-6.3-13.7c1.8,0.4,3.5,0.7,4.9,1.6c3.1,2,4.1,5.1,4.1,8.7
	c0,1.8,1,3,2.4,2.9c1,0,1.9-1.4,1.8-3c-0.3-4.9-2.2-9.1-6-12.2c-0.4-0.3-0.8-0.7-1.2-1c0.1-0.1,0.1-0.2,0.2-0.3
	c1.3,0.7,2.7,1.1,3.8,2c3,2.6,5.2,5.8,5.6,9.9c0.1,0.9,0.6,2,1.2,2.7c1,1.2,2.6,0.8,3-0.7c0.2-0.8,0.3-1.8,0.1-2.6
	c-0.6-3.4-2.5-6.1-4.5-8.8c-0.6-0.8-1.2-1.6-1.8-2.3c0.1-0.1,0.2-0.2,0.3-0.3c3.6,2.1,6,5.2,7.9,9c0.4-1.1,0.6-2.2,0.9-3.3
	c0.3-0.8,0.2-1.3-0.4-1.9c-2.1-2.3-4.1-4.7-6.3-7c-1.4-1.4-2.9-2.8-4.9-2.9c-3.1-0.1-6.2,0.3-9.2,0.5c-1,0.1-2,0.3-3,0.1
	c-4.8-0.8-9.4-2.2-13.7-4.3c-4.2-2-8.3-4.2-12.4-6.3c0,0,0-0.2,0-0.3c3.8-1,6.7-3.3,9.1-6.3c6.8-9,9.4-19.1,7.9-30.2
	c-0.1-0.9-0.3-1.9-0.5-2.8c0.4,0.2,0.7,0.5,0.9,0.8c4.4,6.2,6.2,13.2,6.6,20.7c0.1,2.6,1.3,4.5,3.2,6c2,1.6,3.7,1.1,4.3-1.4
	c1.4-5.1,1.1-10.3-0.2-15.3c-1.8-7.1-5.6-13.3-10.4-18.7c-4.6-5.1-7.2-10.8-6.5-17.7c0-0.2-0.1-0.4-0.1-0.7c-0.2,0-0.3,0-0.5,0
	c0,3,0,6.1,0,9.1c-2.4-4.2-2.4-8.7-2.4-13.3c-2.4,3.6-5.8,5.8-9.6,7.6c1.4-2.1,2.8-4.2,4.2-6.2c-0.1-0.1-0.2-0.2-0.3-0.2
	c-5.2,3-8.7,7.6-11.9,12.8c3.8-1.8,7.2-3.4,10.7-5c-0.2,0.7-0.6,1.2-1,1.6c-2.7,2.4-5.3,4.9-8.1,7.1c-9,6.8-14.7,15.5-16.3,26.8
	c-0.3,1.8-0.2,3.6-0.3,5.5c1.1-3.9,2.1-7.6,3.3-11.3c1-3.2,4.4-7.4,7-8.7c-1.2,2.9-2.6,5.9-3.5,9.1c-0.9,3.1-1.4,6.4-2,9.7
	c-0.5,2.8,0.1,8.4,0.9,9.6c-0.3-6.6,0.9-12.8,3.7-18.7c-0.7,10.8-0.1,21.3,6.6,30.7c-0.3,0.1-0.7,0.1-1,0.2
	c-2.8,0.6-5.5,1.5-7.5,3.7c-1.5,1.6-1.7,3.2-0.6,5.1c1.2,2.1,3,3.6,5.2,4.6c0.3,0.2,0.6,0.4,1,0.5c0,0.2-0.1,0.3-0.1,0.5
	c-3.8-0.7-7.5-1.3-11.6-2c1.5,0.9,2.6,1.7,3.9,2.3c4.3,2,8.9,2.6,13.5,3c1,0.1,2,0.2,3,0.3c0,0.1,0,0.3,0,0.4
	c-2.1,0.5-4.2,1-6.3,1.4C378.8,154.7,376.6,154.7,374.5,154.9z M452.5,74.7c-0.2,2.9-0.4,5.5-0.7,8.1c-1.1,12.4-6.4,22.6-15.9,30.6
	c-2.7,2.3-5.7,4.2-8.6,6.2c-1.6,1.1-2,1.8-1.5,3.3c3.2-0.2,6-1.7,8.8-3.1c0.1,0.1,0.1,0.3,0.2,0.4c-3,1.9-5.9,3.7-8.9,5.6
	c0.7,0.9,1.5,0.6,2.2,0.3c3.9-1.4,7.6-3.3,11-5.8c0.3-0.2,0.7-0.4,1-0.6c0.1,0.1,0.2,0.3,0.3,0.4c-4.2,3.3-8.4,6.6-12.7,9.9
	c1.3,0.9,2.4,0.2,3.4-0.4c9.5-5.3,16.2-13,20.3-23.1c1.3-3.1,2.3-6.3,3.5-9.7c0.3,1.9,0.8,3.7,0.7,5.5c-0.2,4-0.8,8-1.3,12
	c-0.1,1,0.1,1.4,1.2,1.2c2.2-0.2,4.3-0.4,6.5-0.5c0.9,0,1.3-0.3,1.4-1.3c0.2-4.6,0.6-9.3,0.6-13.9c0-5.3-1-10.4-3.2-15.2
	C459,80.8,456.2,77.4,452.5,74.7z M420.4,76.2c1.1-1.9,1.5-3.4,0.3-5.1c-0.8-1.2-1.4-2.4-2-3.8c-0.8-2.1-0.8-4.3,0.7-6.1
	c1.7-2,3.9-2.2,6.2-1.6c2.2,0.5,4.4,1.3,6.6,2c3.2,1,6.3,1.4,9.3-0.8c2-1.4,4.3-2.1,7.1-1.4c-0.2-1.1-0.2-2.1-0.7-2.9
	c-1.5-2.5-3-4.9-4.8-7.1c-2.2-2.8-4.7-5.4-7.1-8c0.1-0.1,0.2-0.3,0.2-0.4c1.2,0.6,2.5,1.2,3.7,1.8c-1.7-4.6-6.1-7.8-12.1-7.7
	c-5.2,0-11.9,5.6-12.8,10.3c2.2-1.6,4.6-3.6,7.3-5.1c2.7-1.5,5.8-1.9,9.1-0.5c-5,1.5-10.2,6.8-10.1,10.1c1.2-0.1,2.6-0.5,3.7-0.3
	c2.1,0.4,4.2,1,6.1,1.9c1.9,0.8,3.8,1.5,6,1.3c0.8-0.1,1.5,0,2.3,0c-0.5,0.5-1,0.7-1.6,0.9c-3.2,1.1-6.5,0.7-9.7,0
	c-2.8-0.6-5.1-0.1-7.2,1.8c-2.8,2.6-4.8,5.7-5.9,9.3c-1.5,4.9,0,10.3,3.4,13.3c-0.3-2.3-0.7-4.7-1.1-7.1c0.1,0,0.2,0,0.4-0.1
	C418.7,72.6,419.5,74.2,420.4,76.2z M448,86.4c0.8-3.3,0.3-6.3-0.5-9.3c-0.2-0.9-0.3-2-0.2-3c0.2-1.8,0.5-3.6,0.8-5.4
	c-1.1,0.6-2.1,1.1-2.6,1.4c-1.5-0.7-2.6-1.6-3.8-1.6c-3.2-0.1-6.3-0.4-9.4,0.9c-1.2,0.5-2.8,0.3-4.2,0.4c-0.5,0-1-0.1-1.5-0.1
	c0,0.2-0.1,0.4-0.1,0.5c1.5,0.6,2.9,1.2,4.5,1.9c-0.7,1.4-1.6,2.9-2.3,4.5c-0.9,2.1-2.1,4.2-2.5,6.4c-0.8,4,0.6,9.2,6,10.9
	c2,0.6,4.2,0.6,6.3,0.7c2.2,0,4.3-0.8,6-2.2c1.2-1,2.2-2.1,2.7-3.7c-3.3-1.4-6.6-1.4-10-0.9c-2.1,0.3-4.2,0.9-6.3-0.2
	C436.5,86.2,442.1,84.6,448,86.4z M429.1,169.2c-1.5,1.9-2.8,2.3-5.2,1.6c-0.4-0.1-1,0-1.4,0.2c-2.3,1.5-4,1.5-6.1-0.3
	c-0.9-0.8-1.6-1.7-2.5-2.4c-0.4-0.3-1-0.5-1.5-0.5c-2.7,0.2-5.4,0.6-8,0.9c-2.1,0.2-4.1,0.4-6.2,0.7c-0.3,0.1-0.6,0.6-0.9,0.9
	c0.3,0.3,0.5,0.6,0.8,0.8c0.2,0.1,0.5,0.2,0.8,0.2c6.6,1.5,13.2,3,19.8,4.5c3.5,0.8,7,1.7,10.6,2.6c0.9,0.2,1.9,0.2,2.2-0.8
	c0.7-2.6,1.3-5.1,1.9-7.6C431.9,169.8,430.6,169.5,429.1,169.2z M387.3,168.6c0.2,0.4,0.4,0.8,0.6,1.3c2.1,4.2,4,8.5,5,13.2
	c0.9,4,0.4,7.8-1.8,11.3c-0.1,0.2-0.3,0.5-0.5,0.9c0.4-0.1,0.6-0.2,0.7-0.3c5.2-2.8,7.2-9.4,4.5-15.1
	C393.9,175.5,390.3,172.2,387.3,168.6z M360.8,139.1c-3.4,3.3-7.8,17.9-7.8,21.9C356.3,153.7,359.4,146.7,360.8,139.1z M358.3,176.3
	c0.2,0,0.3,0.1,0.5,0.1c1.1-4.4,2.3-8.8,3.4-13.2c0.4-1.7,0.7-3.4,0-5.2C360.1,164,358.7,170.1,358.3,176.3z M359,134.2
	c-0.2-0.1-0.3-0.1-0.5-0.2c-3.7,5.3-5.9,11.3-6.6,17.7c0.1,0,0.2,0.1,0.4,0.1C354.5,146,356.7,140.1,359,134.2z M362.8,112.7
	c1.6-6.2,3.2-12.7,4.8-19.2C364.4,97.4,361.9,107.7,362.8,112.7z M365.5,162.3c-1.5,2.3-3.9,14.5-3.3,16.6
	C363.3,176.9,365.8,164.2,365.5,162.3z M355.8,167.2c0.1,0,0.3,0.1,0.4,0.1c1.5-5.9,3.1-11.7,4.6-17.6c-0.1,0-0.3-0.1-0.4-0.1
	C358.1,155.3,356.2,161,355.8,167.2z M407.9,62.7c-0.3-4.6,0.2-5.7,4.7-6.7c-0.5-0.6-0.9-1.1-1.3-1.3c-1.2-0.5-2.8,0-3.7,1.1
	C406.1,57.7,406.1,60.5,407.9,62.7z M349.2,140c0.2,0,0.4,0.1,0.5,0.1c1.1-5.5,2.3-11,3.4-16.6c-0.1,0-0.3-0.1-0.4-0.1
	C350.8,128.9,349.7,134.4,349.2,140z M368.4,168.3c-0.2,0-0.3-0.1-0.5-0.1c-0.6,2.7-1.1,5.5-1.7,8.2c0.2,0,0.4,0.1,0.5,0.1
	C367.3,173.8,367.8,171.1,368.4,168.3z M368.7,180.2c0.1,0,0.3,0.1,0.4,0.1c0.4-1.8,0.7-3.7,1.1-5.5c-0.2,0-0.3-0.1-0.5-0.1
	C369.5,176.6,369.1,178.4,368.7,180.2z M470.6,158.8c1,0.2,1.5-0.2,1.9-1.1c3.4-7.1,6.9-14.2,10.3-21.3c1.2-2.5,2.4-5.1,3.7-7.9
	c-1,0-1.8,0.1-2.6,0c-0.9-0.1-1.4,0.1-1.8,1c-2.2,4.6-4.5,9.2-6.7,13.8c-2.5,5-4.9,10.1-7.4,15.3C469,158.7,469.8,158.6,470.6,158.8
	z M467.2,150.5c0.4-0.6,0.3-1.1-0.2-1.6c-1.2-1.3-2.4-2.7-3.7-4.2c2.1-1.4,3.9-2.8,5.9-4c2.4-1.4,2.5-3.8,3.2-6.1
	c-5,3.4-9.9,6.7-15,10.1c2.8,3,5.5,5.9,8.3,8.9C466.2,152.5,466.6,151.5,467.2,150.5z M488,134.8c-0.4,1.1-0.7,2-1.2,2.9
	c-0.5,0.9-0.2,1.5,0.4,2.1c1.2,1.2,2.3,2.5,3.6,3.8c-2.2,1.5-4.2,3-6.4,4.2c-2.7,1.4-2.6,4.2-3.7,6.4c5.1-3.5,10.3-7,15.5-10.5
	C493.4,140.7,490.7,137.8,488,134.8z M444.8,72.2c-0.6,0-1.2-0.2-1.7-0.1c-2.8,0.7-5.6,1-8.4,0.6c-1.4-0.2-2,0.6-1.6,1.9
	c0.2,0.7,0.9,1.5,1.5,1.9c0.9,0.5,1.9,0.7,2.9,0.9c1,0.2,1.4-0.1,1.3-1.2c0-0.6,0.2-1.1,0.3-1.7c0.1,0,0.3,0,0.4,0
	c0.2,0.8,0.4,1.7,0.6,2.6C442.6,77.3,444.4,75.6,444.8,72.2z M445,64.9l43,48.2l18.9-1.6l-60.8-46.9L445,64.9z M428.4,66.2l24.1,50
	l16.9-1.5l-39.8-48.4H428.4z"/>
</svg>
